<svg viewBox="0 0 480 360" xmlns="http://www.w3.org/2000/svg">
  <!-- clouds -->
  <path d="M96 56c-6-8-18-8-22 0-8-2-14 4-12 12h40c4-6 0-11-6-12z" stroke="#E0492B" stroke-width="2.5" fill="none" stroke-linecap="round" stroke-linejoin="round"/>
  <path d="M368 44c-5-7-15-7-18 0-7-2-12 3-10 10h34c3-5 0-9-6-10z" stroke="#E0492B" stroke-width="2.5" fill="none" stroke-linecap="round" stroke-linejoin="round"/>

  <!-- ground line -->
  <path d="M40 316h400" stroke="#E0492B" stroke-width="2.5" fill="none" stroke-linecap="round" stroke-linejoin="round"/>

  <!-- left tree -->
  <circle cx="88" cy="190" r="34" fill="#E0492B" opacity="0.08"/>
  <path d="M88 224v54" stroke="#E0492B" stroke-width="2.5" fill="none" stroke-linecap="round" stroke-linejoin="round"/>
  <path d="M88 156a34 34 0 1 0 0.1 0z" stroke="#E0492B" stroke-width="2.5" fill="none" stroke-linecap="round" stroke-linejoin="round"/>
  <path d="M88 224c-14-6-22-18-22-30" stroke="#E0492B" stroke-width="2.5" fill="none" stroke-linecap="round" stroke-linejoin="round"/>
  <path d="M88 224c14-6 22-18 22-30" stroke="#E0492B" stroke-width="2.5" fill="none" stroke-linecap="round" stroke-linejoin="round"/>

  <!-- right tree -->
  <circle cx="394" cy="196" r="30" fill="#E0492B" opacity="0.08"/>
  <path d="M394 226v48" stroke="#E0492B" stroke-width="2.5" fill="none" stroke-linecap="round" stroke-linejoin="round"/>
  <path d="M394 166a30 30 0 1 0 0.1 0z" stroke="#E0492B" stroke-width="2.5" fill="none" stroke-linecap="round" stroke-linejoin="round"/>
  <path d="M394 226c-12-5-19-16-19-27" stroke="#E0492B" stroke-width="2.5" fill="none" stroke-linecap="round" stroke-linejoin="round"/>
  <path d="M394 226c12-5 19-16 19-27" stroke="#E0492B" stroke-width="2.5" fill="none" stroke-linecap="round" stroke-linejoin="round"/>

  <!-- pediment (triangular roof) -->
  <path d="M150 120 240 66 330 120z" fill="#E0492B" opacity="0.08"/>
  <path d="M150 120 240 66 330 120" stroke="#E0492B" stroke-width="2.5" fill="none" stroke-linecap="round" stroke-linejoin="round"/>
  <path d="M240 86v22" stroke="#E0492B" stroke-width="2.5" fill="none" stroke-linecap="round" stroke-linejoin="round"/>

  <!-- main facade block (three storeys) -->
  <rect x="146" y="120" width="188" height="150" fill="#E0492B" opacity="0.08"/>
  <path d="M146 120h188v150h-188z" stroke="#E0492B" stroke-width="2.5" fill="none" stroke-linecap="round" stroke-linejoin="round"/>
  <path d="M146 170h188" stroke="#E0492B" stroke-width="2.5" fill="none" stroke-linecap="round" stroke-linejoin="round"/>
  <path d="M146 220h188" stroke="#E0492B" stroke-width="2.5" fill="none" stroke-linecap="round" stroke-linejoin="round"/>

  <!-- 4 columns -->
  <path d="M168 132v138" stroke="#E0492B" stroke-width="2.5" fill="none" stroke-linecap="round" stroke-linejoin="round"/>
  <path d="M206 132v138" stroke="#E0492B" stroke-width="2.5" fill="none" stroke-linecap="round" stroke-linejoin="round"/>
  <path d="M274 132v138" stroke="#E0492B" stroke-width="2.5" fill="none" stroke-linecap="round" stroke-linejoin="round"/>
  <path d="M312 132v138" stroke="#E0492B" stroke-width="2.5" fill="none" stroke-linecap="round" stroke-linejoin="round"/>

  <!-- top-storey windows -->
  <rect x="182" y="140" width="16" height="20" rx="2" stroke="#E0492B" stroke-width="2.5" fill="none" stroke-linecap="round" stroke-linejoin="round"/>
  <rect x="282" y="140" width="16" height="20" rx="2" stroke="#E0492B" stroke-width="2.5" fill="none" stroke-linecap="round" stroke-linejoin="round"/>

  <!-- middle-storey windows -->
  <rect x="182" y="188" width="16" height="20" rx="2" stroke="#E0492B" stroke-width="2.5" fill="none" stroke-linecap="round" stroke-linejoin="round"/>
  <rect x="282" y="188" width="16" height="20" rx="2" stroke="#E0492B" stroke-width="2.5" fill="none" stroke-linecap="round" stroke-linejoin="round"/>

  <!-- arched entrance -->
  <path d="M222 270v-40a18 18 0 0 1 36 0v40z" stroke="#E0492B" stroke-width="2.5" fill="none" stroke-linecap="round" stroke-linejoin="round"/>
  <path d="M232 270v-34a8 8 0 0 1 16 0v34" stroke="#E0492B" stroke-width="2.5" fill="none" stroke-linecap="round" stroke-linejoin="round"/>

  <!-- steps -->
  <path d="M128 292h224" stroke="#E0492B" stroke-width="2.5" fill="none" stroke-linecap="round" stroke-linejoin="round"/>
  <path d="M140 282h200" stroke="#E0492B" stroke-width="2.5" fill="none" stroke-linecap="round" stroke-linejoin="round"/>
  <path d="M152 272h176" stroke="#E0492B" stroke-width="2.5" fill="none" stroke-linecap="round" stroke-linejoin="round"/>

  <!-- side wings -->
  <path d="M112 190h34v80h-34z" fill="#E0492B" opacity="0.08"/>
  <path d="M112 190h34v80h-34z" stroke="#E0492B" stroke-width="2.5" fill="none" stroke-linecap="round" stroke-linejoin="round"/>
  <rect x="122" y="210" width="14" height="18" rx="2" stroke="#E0492B" stroke-width="2.5" fill="none" stroke-linecap="round" stroke-linejoin="round"/>

  <path d="M334 190h34v80h-34z" fill="#E0492B" opacity="0.08"/>
  <path d="M334 190h34v80h-34z" stroke="#E0492B" stroke-width="2.5" fill="none" stroke-linecap="round" stroke-linejoin="round"/>
  <rect x="344" y="210" width="14" height="18" rx="2" stroke="#E0492B" stroke-width="2.5" fill="none" stroke-linecap="round" stroke-linejoin="round"/>
</svg>
